# xmcd
#
# Track frame offsets: 
#        150
#        32817
#        62494
#        97556
#        122013
#        145187
#        171506
#
# Disc length: 3876 seconds
#
# Revision: 0
# Processed by: cddbd v1.5.2PL0 Copyright (c) Steve Scherf et al.
# Submitted via: ExactAudioCopy v0.95b4
#
DISCID=550f2207
DTITLE=Eric Clapton - 1987-04-18 - Minnesota Night - CD1
DYEAR=1987
DGENRE=Blues
TTITLE0=Crossroads
TTITLE1=White Room
TTITLE2=I Shot The Sheriff
TTITLE3=Hung Up On Your Love
TTITLE4=Wonderful Tonight
TTITLE5=Miss You
TTITLE6=Same Old Blues
EXTD=
EXTT0=
EXTT1=
EXTT2=
EXTT3=
EXTT4=
EXTT5=
EXTT6=
PLAYORDER=
